<svg width="165" height="64" viewBox="0 0 165 64" fill="none" xmlns="http://www.w3.org/2000/svg">
<path d="M44.3 28C44.08 28 43.91 27.94 43.79 27.82C43.67 27.68 43.61 27.51 43.61 27.31V7.72002C43.61 7.50002 43.67 7.33002 43.79 7.21002C43.91 7.07002 44.08 7.00002 44.3 7.00002H45.68C45.92 7.00002 46.1 7.06002 46.22 7.18002C46.34 7.28002 46.41 7.36002 46.43 7.42002L56.39 22.72V7.72002C56.39 7.50002 56.45 7.33002 56.57 7.21002C56.69 7.07002 56.86 7.00002 57.08 7.00002H58.52C58.74 7.00002 58.91 7.07002 59.03 7.21002C59.17 7.33002 59.24 7.50002 59.24 7.72002V27.28C59.24 27.48 59.17 27.65 59.03 27.79C58.91 27.93 58.75 28 58.55 28H57.11C56.89 28 56.72 27.94 56.6 27.82C56.5 27.7 56.43 27.62 56.39 27.58L46.46 12.43V27.31C46.46 27.51 46.39 27.68 46.25 27.82C46.13 27.94 45.96 28 45.74 28H44.3ZM70.4401 28.3C68.9201 28.3 67.6501 28.01 66.6301 27.43C65.6101 26.85 64.8301 26.05 64.2901 25.03C63.7501 23.99 63.4501 22.81 63.3901 21.49C63.3701 21.15 63.3601 20.72 63.3601 20.2C63.3601 19.66 63.3701 19.23 63.3901 18.91C63.4501 17.57 63.7501 16.39 64.2901 15.37C64.8501 14.35 65.6401 13.55 66.6601 12.97C67.6801 12.39 68.9401 12.1 70.4401 12.1C71.9401 12.1 73.2001 12.39 74.2201 12.97C75.2401 13.55 76.0201 14.35 76.5601 15.37C77.1201 16.39 77.4301 17.57 77.4901 18.91C77.5101 19.23 77.5201 19.66 77.5201 20.2C77.5201 20.72 77.5101 21.15 77.4901 21.49C77.4301 22.81 77.1301 23.99 76.5901 25.03C76.0501 26.05 75.2701 26.85 74.2501 27.43C73.2301 28.01 71.9601 28.3 70.4401 28.3ZM70.4401 25.99C71.6801 25.99 72.6701 25.6 73.4101 24.82C74.1501 24.02 74.5501 22.86 74.6101 21.34C74.6301 21.04 74.6401 20.66 74.6401 20.2C74.6401 19.74 74.6301 19.36 74.6101 19.06C74.5501 17.54 74.1501 16.39 73.4101 15.61C72.6701 14.81 71.6801 14.41 70.4401 14.41C69.2001 14.41 68.2001 14.81 67.4401 15.61C66.7001 16.39 66.3101 17.54 66.2701 19.06C66.2501 19.36 66.2401 19.74 66.2401 20.2C66.2401 20.66 66.2501 21.04 66.2701 21.34C66.3101 22.86 66.7001 24.02 67.4401 24.82C68.2001 25.6 69.2001 25.99 70.4401 25.99ZM87.0966 28.3C85.8166 28.3 84.7266 28.02 83.8266 27.46C82.9466 26.88 82.2766 26.08 81.8166 25.06C81.3566 24.04 81.1266 22.87 81.1266 21.55V13.09C81.1266 12.89 81.1866 12.73 81.3066 12.61C81.4466 12.47 81.6166 12.4 81.8166 12.4H83.3166C83.5166 12.4 83.6766 12.47 83.7966 12.61C83.9366 12.73 84.0066 12.89 84.0066 13.09V21.4C84.0066 24.38 85.3066 25.87 87.9066 25.87C89.1466 25.87 90.1366 25.48 90.8766 24.7C91.6366 23.9 92.0166 22.8 92.0166 21.4V13.09C92.0166 12.89 92.0766 12.73 92.1966 12.61C92.3366 12.47 92.5066 12.4 92.7066 12.4H94.1766C94.3966 12.4 94.5666 12.47 94.6866 12.61C94.8066 12.73 94.8666 12.89 94.8666 13.09V27.31C94.8666 27.51 94.8066 27.68 94.6866 27.82C94.5666 27.94 94.3966 28 94.1766 28H92.7966C92.5966 28 92.4266 27.94 92.2866 27.82C92.1666 27.68 92.1066 27.51 92.1066 27.31V25.99C91.5666 26.69 90.9066 27.25 90.1266 27.67C89.3666 28.09 88.3566 28.3 87.0966 28.3ZM104.754 28C104.454 28 104.214 27.93 104.034 27.79C103.874 27.65 103.744 27.47 103.644 27.25L98.0935 13.33C98.0535 13.23 98.0335 13.13 98.0335 13.03C98.0335 12.85 98.0935 12.7 98.2135 12.58C98.3335 12.46 98.4835 12.4 98.6635 12.4H100.104C100.324 12.4 100.494 12.46 100.614 12.58C100.734 12.7 100.804 12.81 100.824 12.91L105.414 24.73L109.974 12.91C110.014 12.81 110.084 12.7 110.184 12.58C110.304 12.46 110.474 12.4 110.694 12.4H112.164C112.324 12.4 112.464 12.46 112.584 12.58C112.724 12.7 112.794 12.85 112.794 13.03C112.794 13.13 112.774 13.23 112.734 13.33L107.154 27.25C107.074 27.47 106.944 27.65 106.764 27.79C106.604 27.93 106.364 28 106.044 28H104.754ZM121.588 28.3C119.528 28.3 117.888 27.67 116.668 26.41C115.448 25.13 114.778 23.39 114.658 21.19C114.638 20.93 114.628 20.6 114.628 20.2C114.628 19.78 114.638 19.44 114.658 19.18C114.738 17.76 115.068 16.52 115.648 15.46C116.228 14.38 117.018 13.55 118.018 12.97C119.038 12.39 120.228 12.1 121.588 12.1C123.108 12.1 124.378 12.42 125.398 13.06C126.438 13.7 127.228 14.61 127.768 15.79C128.308 16.97 128.578 18.35 128.578 19.93V20.44C128.578 20.66 128.508 20.83 128.368 20.95C128.248 21.07 128.088 21.13 127.888 21.13H117.508C117.508 21.15 117.508 21.19 117.508 21.25C117.508 21.31 117.508 21.36 117.508 21.4C117.548 22.22 117.728 22.99 118.048 23.71C118.368 24.41 118.828 24.98 119.428 25.42C120.028 25.86 120.748 26.08 121.588 26.08C122.308 26.08 122.908 25.97 123.388 25.75C123.868 25.53 124.258 25.29 124.558 25.03C124.858 24.75 125.058 24.54 125.158 24.4C125.338 24.14 125.478 23.99 125.578 23.95C125.678 23.89 125.838 23.86 126.058 23.86H127.498C127.698 23.86 127.858 23.92 127.978 24.04C128.118 24.14 128.178 24.29 128.158 24.49C128.138 24.79 127.978 25.16 127.678 25.6C127.378 26.02 126.948 26.44 126.388 26.86C125.828 27.28 125.148 27.63 124.348 27.91C123.548 28.17 122.628 28.3 121.588 28.3ZM117.508 19.06H125.728V18.97C125.728 18.07 125.558 17.27 125.218 16.57C124.898 15.87 124.428 15.32 123.808 14.92C123.188 14.5 122.448 14.29 121.588 14.29C120.728 14.29 119.988 14.5 119.368 14.92C118.768 15.32 118.308 15.87 117.988 16.57C117.668 17.27 117.508 18.07 117.508 18.97V19.06ZM136.515 28.3C135.515 28.3 134.605 28.1 133.785 27.7C132.965 27.3 132.305 26.76 131.805 26.08C131.305 25.4 131.055 24.63 131.055 23.77C131.055 22.39 131.615 21.29 132.735 20.47C133.855 19.65 135.315 19.11 137.115 18.85L141.585 18.22V17.35C141.585 16.39 141.305 15.64 140.745 15.1C140.205 14.56 139.315 14.29 138.075 14.29C137.175 14.29 136.445 14.47 135.885 14.83C135.345 15.19 134.965 15.65 134.745 16.21C134.625 16.51 134.415 16.66 134.115 16.66H132.765C132.545 16.66 132.375 16.6 132.255 16.48C132.155 16.34 132.105 16.18 132.105 16C132.105 15.7 132.215 15.33 132.435 14.89C132.675 14.45 133.035 14.02 133.515 13.6C133.995 13.18 134.605 12.83 135.345 12.55C136.105 12.25 137.025 12.1 138.105 12.1C139.305 12.1 140.315 12.26 141.135 12.58C141.955 12.88 142.595 13.29 143.055 13.81C143.535 14.33 143.875 14.92 144.075 15.58C144.295 16.24 144.405 16.91 144.405 17.59V27.31C144.405 27.51 144.335 27.68 144.195 27.82C144.075 27.94 143.915 28 143.715 28H142.335C142.115 28 141.945 27.94 141.825 27.82C141.705 27.68 141.645 27.51 141.645 27.31V26.02C141.385 26.38 141.035 26.74 140.595 27.1C140.155 27.44 139.605 27.73 138.945 27.97C138.285 28.19 137.475 28.3 136.515 28.3ZM137.145 26.05C137.965 26.05 138.715 25.88 139.395 25.54C140.075 25.18 140.605 24.63 140.985 23.89C141.385 23.15 141.585 22.22 141.585 21.1V20.26L138.105 20.77C136.685 20.97 135.615 21.31 134.895 21.79C134.175 22.25 133.815 22.84 133.815 23.56C133.815 24.12 133.975 24.59 134.295 24.97C134.635 25.33 135.055 25.6 135.555 25.78C136.075 25.96 136.605 26.05 137.145 26.05ZM154.538 28.3C153.258 28.3 152.168 28.02 151.268 27.46C150.388 26.88 149.718 26.08 149.258 25.06C148.798 24.04 148.568 22.87 148.568 21.55V13.09C148.568 12.89 148.628 12.73 148.748 12.61C148.888 12.47 149.058 12.4 149.258 12.4H150.758C150.958 12.4 151.118 12.47 151.238 12.61C151.378 12.73 151.448 12.89 151.448 13.09V21.4C151.448 24.38 152.748 25.87 155.348 25.87C156.588 25.87 157.578 25.48 158.318 24.7C159.078 23.9 159.458 22.8 159.458 21.4V13.09C159.458 12.89 159.518 12.73 159.638 12.61C159.778 12.47 159.948 12.4 160.148 12.4H161.618C161.838 12.4 162.008 12.47 162.128 12.61C162.248 12.73 162.308 12.89 162.308 13.09V27.31C162.308 27.51 162.248 27.68 162.128 27.82C162.008 27.94 161.838 28 161.618 28H160.238C160.038 28 159.868 27.94 159.728 27.82C159.608 27.68 159.548 27.51 159.548 27.31V25.99C159.008 26.69 158.348 27.25 157.568 27.67C156.808 28.09 155.798 28.3 154.538 28.3Z" fill="000000"/>
<path d="M63.85 56C63.63 56 63.45 55.93 63.31 55.79C63.17 55.65 63.1 55.47 63.1 55.25V35.75C63.1 35.53 63.17 35.35 63.31 35.21C63.45 35.07 63.63 35 63.85 35H71.65C73.61 35 75.28 35.32 76.66 35.96C78.04 36.58 79.1 37.5 79.84 38.72C80.58 39.92 80.98 41.41 81.04 43.19C81.06 44.07 81.07 44.84 81.07 45.5C81.07 46.16 81.06 46.92 81.04 47.78C80.96 49.64 80.56 51.18 79.84 52.4C79.14 53.62 78.11 54.53 76.75 55.13C75.41 55.71 73.76 56 71.8 56H63.85ZM68.47 51.68H71.65C72.51 51.68 73.22 51.55 73.78 51.29C74.36 51.01 74.79 50.58 75.07 50C75.37 49.42 75.53 48.66 75.55 47.72C75.59 47.14 75.61 46.62 75.61 46.16C75.63 45.7 75.63 45.24 75.61 44.78C75.61 44.32 75.59 43.81 75.55 43.25C75.51 41.89 75.15 40.9 74.47 40.28C73.81 39.64 72.82 39.32 71.5 39.32H68.47V51.68ZM91.4446 56.3C89.0846 56.3 87.2046 55.66 85.8046 54.38C84.4046 53.1 83.6746 51.2 83.6146 48.68C83.6146 48.54 83.6146 48.36 83.6146 48.14C83.6146 47.92 83.6146 47.75 83.6146 47.63C83.6746 46.05 84.0246 44.7 84.6646 43.58C85.3246 42.44 86.2246 41.58 87.3646 41C88.5246 40.4 89.8746 40.1 91.4146 40.1C93.1746 40.1 94.6246 40.45 95.7646 41.15C96.9246 41.85 97.7946 42.8 98.3746 44C98.9546 45.2 99.2446 46.57 99.2446 48.11V48.83C99.2446 49.05 99.1646 49.23 99.0046 49.37C98.8646 49.51 98.6946 49.58 98.4946 49.58H88.8946C88.8946 49.6 88.8946 49.63 88.8946 49.67C88.8946 49.71 88.8946 49.75 88.8946 49.79C88.9146 50.37 89.0146 50.9 89.1946 51.38C89.3746 51.86 89.6546 52.24 90.0346 52.52C90.4146 52.8 90.8746 52.94 91.4146 52.94C91.8146 52.94 92.1446 52.88 92.4046 52.76C92.6846 52.62 92.9146 52.47 93.0946 52.31C93.2746 52.13 93.4146 51.98 93.5146 51.86C93.6946 51.66 93.8346 51.54 93.9346 51.5C94.0546 51.44 94.2346 51.41 94.4746 51.41H98.1946C98.3946 51.41 98.5546 51.47 98.6746 51.59C98.8146 51.69 98.8746 51.84 98.8546 52.04C98.8346 52.38 98.6646 52.79 98.3446 53.27C98.0246 53.75 97.5546 54.23 96.9346 54.71C96.3346 55.17 95.5746 55.55 94.6546 55.85C93.7346 56.15 92.6646 56.3 91.4446 56.3ZM88.8946 46.61H93.9646V46.55C93.9646 45.91 93.8646 45.35 93.6646 44.87C93.4846 44.39 93.1946 44.02 92.7946 43.76C92.4146 43.5 91.9546 43.37 91.4146 43.37C90.8746 43.37 90.4146 43.5 90.0346 43.76C89.6746 44.02 89.3946 44.39 89.1946 44.87C88.9946 45.35 88.8946 45.91 88.8946 46.55V46.61ZM89.6746 38.15C89.3546 38.15 89.1946 37.99 89.1946 37.67C89.1946 37.51 89.2446 37.38 89.3446 37.28L91.9846 34.07C92.1846 33.83 92.3546 33.68 92.4946 33.62C92.6346 33.54 92.8346 33.5 93.0946 33.5H97.0246C97.4046 33.5 97.5946 33.7 97.5946 34.1C97.5946 34.24 97.5446 34.36 97.4446 34.46L93.4846 37.73C93.3246 37.87 93.1646 37.98 93.0046 38.06C92.8446 38.12 92.6246 38.15 92.3446 38.15H89.6746ZM102.807 61.7C102.587 61.7 102.407 61.63 102.267 61.49C102.127 61.35 102.057 61.17 102.057 60.95V41.15C102.057 40.93 102.127 40.75 102.267 40.61C102.407 40.47 102.587 40.4 102.807 40.4H106.197C106.397 40.4 106.567 40.47 106.707 40.61C106.867 40.75 106.947 40.93 106.947 41.15V42.26C107.407 41.64 108.017 41.13 108.777 40.73C109.537 40.31 110.477 40.1 111.597 40.1C112.597 40.1 113.477 40.26 114.237 40.58C114.997 40.88 115.647 41.33 116.187 41.93C116.727 42.53 117.147 43.26 117.447 44.12C117.767 44.98 117.947 45.97 117.987 47.09C118.007 47.49 118.017 47.86 118.017 48.2C118.017 48.54 118.007 48.91 117.987 49.31C117.947 50.39 117.777 51.36 117.477 52.22C117.177 53.08 116.757 53.81 116.217 54.41C115.677 55.01 115.017 55.48 114.237 55.82C113.477 56.14 112.597 56.3 111.597 56.3C110.617 56.3 109.757 56.13 109.017 55.79C108.297 55.43 107.697 54.93 107.217 54.29V60.95C107.217 61.17 107.147 61.35 107.007 61.49C106.867 61.63 106.687 61.7 106.467 61.7H102.807ZM109.977 52.28C110.657 52.28 111.187 52.14 111.567 51.86C111.947 51.58 112.217 51.2 112.377 50.72C112.557 50.24 112.667 49.71 112.707 49.13C112.747 48.51 112.747 47.89 112.707 47.27C112.667 46.69 112.557 46.16 112.377 45.68C112.217 45.2 111.947 44.82 111.567 44.54C111.187 44.26 110.657 44.12 109.977 44.12C109.317 44.12 108.787 44.27 108.387 44.57C107.987 44.85 107.697 45.22 107.517 45.68C107.337 46.14 107.237 46.64 107.217 47.18C107.197 47.56 107.187 47.93 107.187 48.29C107.187 48.65 107.197 49.03 107.217 49.43C107.237 49.93 107.347 50.4 107.547 50.84C107.747 51.26 108.047 51.61 108.447 51.89C108.847 52.15 109.357 52.28 109.977 52.28ZM125.663 56.3C124.583 56.3 123.613 56.1 122.753 55.7C121.913 55.28 121.243 54.72 120.743 54.02C120.243 53.32 119.993 52.53 119.993 51.65C119.993 50.23 120.573 49.11 121.733 48.29C122.893 47.45 124.433 46.88 126.353 46.58L130.103 46.01V45.59C130.103 44.87 129.953 44.32 129.653 43.94C129.353 43.56 128.803 43.37 128.003 43.37C127.443 43.37 126.983 43.48 126.623 43.7C126.283 43.92 126.013 44.22 125.813 44.6C125.633 44.86 125.383 44.99 125.063 44.99H121.703C121.483 44.99 121.313 44.93 121.193 44.81C121.073 44.67 121.023 44.51 121.043 44.33C121.043 43.97 121.173 43.56 121.433 43.1C121.713 42.62 122.133 42.15 122.693 41.69C123.253 41.23 123.973 40.85 124.853 40.55C125.733 40.25 126.793 40.1 128.033 40.1C129.333 40.1 130.443 40.25 131.363 40.55C132.283 40.85 133.023 41.27 133.583 41.81C134.163 42.35 134.593 42.99 134.873 43.73C135.153 44.45 135.293 45.25 135.293 46.13V55.25C135.293 55.47 135.213 55.65 135.053 55.79C134.913 55.93 134.743 56 134.543 56H131.063C130.843 56 130.663 55.93 130.523 55.79C130.383 55.65 130.313 55.47 130.313 55.25V54.2C130.053 54.58 129.703 54.93 129.263 55.25C128.823 55.57 128.303 55.82 127.703 56C127.123 56.2 126.443 56.3 125.663 56.3ZM127.073 52.88C127.653 52.88 128.173 52.76 128.633 52.52C129.113 52.26 129.483 51.87 129.743 51.35C130.023 50.81 130.163 50.14 130.163 49.34V48.92L127.613 49.37C126.673 49.53 125.983 49.78 125.543 50.12C125.123 50.44 124.913 50.82 124.913 51.26C124.913 51.6 125.013 51.89 125.213 52.13C125.413 52.37 125.673 52.56 125.993 52.7C126.313 52.82 126.673 52.88 127.073 52.88ZM139.428 56C139.208 56 139.028 55.93 138.888 55.79C138.748 55.65 138.678 55.47 138.678 55.25V41.15C138.678 40.95 138.748 40.78 138.888 40.64C139.028 40.48 139.208 40.4 139.428 40.4H142.878C143.098 40.4 143.278 40.48 143.418 40.64C143.558 40.78 143.628 40.95 143.628 41.15V42.35C144.168 41.73 144.808 41.25 145.548 40.91C146.308 40.57 147.158 40.4 148.098 40.4H149.418C149.618 40.4 149.788 40.47 149.928 40.61C150.088 40.75 150.168 40.93 150.168 41.15V44.24C150.168 44.44 150.088 44.62 149.928 44.78C149.788 44.92 149.618 44.99 149.418 44.99H146.508C145.688 44.99 145.048 45.22 144.588 45.68C144.148 46.12 143.928 46.75 143.928 47.57V55.25C143.928 55.47 143.848 55.65 143.688 55.79C143.548 55.93 143.368 56 143.148 56H139.428ZM160.281 56C159.001 56 157.891 55.8 156.951 55.4C156.031 54.98 155.321 54.34 154.821 53.48C154.321 52.6 154.071 51.47 154.071 50.09V44.33H151.731C151.511 44.33 151.321 44.26 151.161 44.12C151.021 43.98 150.951 43.8 150.951 43.58V41.15C150.951 40.93 151.021 40.75 151.161 40.61C151.321 40.47 151.511 40.4 151.731 40.4H154.071V35.45C154.071 35.23 154.141 35.05 154.281 34.91C154.441 34.77 154.621 34.7 154.821 34.7H158.301C158.521 34.7 158.701 34.77 158.841 34.91C158.981 35.05 159.051 35.23 159.051 35.45V40.4H162.801C163.021 40.4 163.201 40.47 163.341 40.61C163.481 40.75 163.551 40.93 163.551 41.15V43.58C163.551 43.8 163.481 43.98 163.341 44.12C163.201 44.26 163.021 44.33 162.801 44.33H159.051V49.67C159.051 50.35 159.181 50.89 159.441 51.29C159.701 51.69 160.141 51.89 160.761 51.89H163.071C163.291 51.89 163.471 51.96 163.611 52.1C163.751 52.24 163.821 52.42 163.821 52.64V55.25C163.821 55.47 163.751 55.65 163.611 55.79C163.471 55.93 163.291 56 163.071 56H160.281Z" fill="#000000"/>
<path d="M38.8547 62.1454C35.1227 62.0873 23.1234 60.6132 7.66373 46.6743L20.2529 41.8433L24.0928 46.4173L20.2529 47.7438L23.8494 48.2082C24.2284 48.2169 24.6003 48.3365 24.9182 48.5525L25.962 49.2587L23.1227 50.8236L27.9024 50.8528C27.9024 50.8528 28.9042 52.4671 30.137 54.2086L33.1875 57.9322C33.1875 57.9322 36.0967 59.8355 37.9329 60.6621L37.9356 60.6638C38.0091 60.7182 38.084 60.7712 38.1577 60.8225C38.576 61.1167 38.8456 61.6171 38.8547 62.1454Z" fill="#2EF9E0"/>
<path d="M38.8571 62.1477C38.8396 62.6794 38.5046 63.1473 38.0285 63.3279C30.0581 66.35 14.4756 58.3157 11.0995 56.3328L11.0266 56.2955C8.44599 55.0634 0.890839 49.2519 0.890839 49.2519L6.57992 47.0617C21.4396 61.3428 34.8004 62.2655 38.8571 62.1477Z" fill="#19DEEB"/>
<path d="M19 30.4452C20.0423 32.1206 19.5545 33.546 17.8823 35.1291L4.94549 16.3936C4.21199 15.2317 4.14859 13.6527 6.06313 11.7097L19 30.4452Z" fill="#2EF9E0"/>
<path d="M13.8866 32.7873C14.929 34.4627 14.4412 35.8882 12.769 37.4712L4.94549 25.7615C4.21198 24.5997 4.1486 23.0207 6.06314 21.0776L13.8866 32.7873Z" fill="#2EF9E0"/>
<path d="M8.94114 35.129C9.98346 36.8044 9.4957 38.2298 7.82349 39.8129L4.94549 35.129C4.21198 33.9672 4.1486 32.3882 6.06314 30.4452L8.94114 35.129Z" fill="#2EF9E0"/>
<path d="M0 48.0095C0.108836 46.1702 2.23529 43.3257 5.58823 42.1547L22.3529 35.1289C23.7246 34.3782 22.1914 32.4223 22.1914 32.4223L6.70588 9.36749C4.36535 5.9389 6.70588 3.51264 8.94117 -0.000274658L26.8235 28.103C29.0673 31.6035 31.7272 35.7472 26.8235 37.4708L0 48.0095Z" fill="#19DEEB"/>
</svg>
